<?xml version="1.0" encoding="UTF-8" standalone="no"?>
<svg
   xmlns:dc="http://purl.org/dc/elements/1.1/"
   xmlns:cc="http://creativecommons.org/ns#"
   xmlns:rdf="http://www.w3.org/1999/02/22-rdf-syntax-ns#"
   xmlns:svg="http://www.w3.org/2000/svg"
   xmlns="http://www.w3.org/2000/svg"
   xmlns:sodipodi="http://sodipodi.sourceforge.net/DTD/sodipodi-0.dtd"
   xmlns:inkscape="http://www.inkscape.org/namespaces/inkscape"
   width="804.8019"
   height="175.1268"
   viewBox="0 0 804.8019 175.1268"
   version="1.1"
   id="svg889"
   sodipodi:docname="list_logo.svg"
   inkscape:version="1.0.2-2 (e86c870879, 2021-01-15)">
  <metadata
     id="metadata895">
    <rdf:RDF>
      <cc:Work
         rdf:about="">
        <dc:format>image/svg+xml</dc:format>
        <dc:type
           rdf:resource="http://purl.org/dc/dcmitype/StillImage" />
      </cc:Work>
    </rdf:RDF>
  </metadata>
  <defs
     id="defs893" />
  <sodipodi:namedview
     pagecolor="#ffffff"
     bordercolor="#666666"
     borderopacity="1"
     objecttolerance="10"
     gridtolerance="10"
     guidetolerance="10"
     inkscape:pageopacity="0"
     inkscape:pageshadow="2"
     inkscape:window-width="1366"
     inkscape:window-height="705"
     id="namedview891"
     showgrid="false"
     inkscape:zoom="0.84865607"
     inkscape:cx="413.58581"
     inkscape:cy="87.5634"
     inkscape:window-x="-8"
     inkscape:window-y="-8"
     inkscape:window-maximized="1"
     inkscape:current-layer="svg889" />
  <g
     stroke="#39426f"
     stroke-linecap="round"
     stroke-linejoin="round"
     stroke-width="1.5"
     id="g871">
    <path
       fill="#949bbd"
       d="M19.121 57.784l-1.3 9q-.1 1.95-5.75 5-3.3 5.95 5.35 16.4l22.45-10.95q2.8-4.8 2.35-9.15l-5.6 2.45 5.6-2.45q-.15-1.45-.65-2.85-10.15-18.65-22.45-7.45z"
       id="path865" />
    <path
       fill="#4F5B93"
       d="M116.421 33.534q-4.9-5.25-12.8-9.05-20.5-6.8-36.85 7.05-12.4 13.15-8.85 25.25 2.65.75 7.45.75-4.8 0-7.45-.75-1.3-.35-2.1-.85-27.4-10.7-36.7 1.85 12.3-11.2 22.45 7.45.5 1.4.65 2.85.45 4.35-2.35 9.15l13.05 18.15 14.1-21.4 3.7-5.65-3.7 5.65q17.35 16.65 37.85 6.6 20.45-10.1 19.25-29.45-.8-10.2-7.7-17.6m-33.3-4.9q2.5 0 5.25 2.25 2.85 2.35 2.85 4.8 0 2.25-.65 3.15-.8 1.05-2.9 1.05-.4 0-1.45-.5-1.05-.55-1.55.6-3.6 6.25-4.25 6.95-1.45 1.55-3.05 1.55-2.75 0-5.55-2.2-2.85-2.2-2.95-4.7-.1-2.5 6.1-7.7 6.15-5.25 8.15-5.25m15.95 11.05q-.95-1.3-.95-3.5.5-2.7 1.3-2.8.8-.1 1.3-.1 1.75 0 3.25 1.4 1.7 1.5 1.7 3.75 0 1.25-1.05 2-.95.65-2.5.65-2 0-3.05-1.4m57.65.55q-.4 1.2-1.55 3.9-1.2 2.7-.75 4.55.5 1.95 3.7 4.3 3.3 2.45 3.95 4.2.45 1.35.05 2.9-.35 1.45-1.3 2.7-1.1 1.3-2.9 2.35.2-.05.4-.05 15.2-.8-1.6-24.85m-3.9-20.45q-1.15-1.65-2.3-3.6-1.15-1.95-4.3-3.85-3.15-1.95-5.8-1.5-2.65.45-4.25 2.5-1.65 2-6.2 9.3-2.85 4.5-6.3 7.3-3.5 2.8-7.25 3.6 6.9 7.4 7.7 17.6 7.2 1.2 10.2 2.7 3 1.45 5.6 5 2.6 3.55 4 4.2 1.4.65 4.9 2.3 3.45 1.6 5.8.95 2.35-.7 3.3-1.15 1.8-1.05 2.9-2.35.95-1.25 1.3-2.7.4-1.55-.05-2.9-.65-1.75-3.95-4.2-3.2-2.35-3.7-4.3-.45-1.85.75-4.55 1.15-2.7 1.55-3.9.15-.45.2-.7.35-2.1-.55-4.2-.9-2.05-2.7-3.3-2-1.2-2.5-1.75-.55-.75-.6-1.8l2.75-2.7q.6-.65.6-1.9 0-2.45-1.1-4.1z"
       id="path867" />
    <path
       fill="#fff"
       stroke="none"
       d="M98.121 36.184q0 2.2.95 3.5 1.05 1.4 3.05 1.4 1.55 0 2.5-.65 1.05-.75 1.05-2 0-2.25-1.7-3.75-1.5-1.4-3.25-1.4-.5 0-1.3.1t-1.3 2.8m-9.75-5.3q-2.75-2.25-5.25-2.25-2 0-8.15 5.25-6.2 5.2-6.1 7.7.1 2.5 2.95 4.7 2.8 2.2 5.55 2.2 1.6 0 3.05-1.55.65-.7 4.25-6.95.5-1.15 1.55-.6 1.05.5 1.45.5 2.1 0 2.9-1.05.65-.9.65-3.15 0-2.45-2.85-4.8z"
       id="path869" />
  </g>
  <g
     stroke="#5c6382"
     stroke-linecap="round"
     stroke-linejoin="round"
     stroke-width="1.5"
     id="g879">
    <path
       fill="#8892BF"
       d="M53.321 97.534q-3.3 6.2-3.7 12.45-.35 4 .55 8.05 6.4 19.4 29.3 22.7 16.75.7 26.85-8.85-.65-2.65-1.4-4.6.75 1.95 1.4 4.6.4 1.6.75 3.5.55 2.75 1.6 8.3 2.35 10.3 7.5 14.75 3.55 3.05 7.15 2.7l.6-.1q3.2-.4 6.65-4.35 7.7-8.2 8.25-14.6.5-6.45-1.95-10.25t-6.8-6.9q1.2-4.95 7.15-9.9 5.2-4.35 9.6-4.5-.95-1.75-6.6-1.85-10.6-.25-16.7 2.25-5.25 2.15-8.05 3.25-.45.2-.85.35-2.85 1-6.3.65 3.45.35 6.3-.65.4-.15.85-.35 3.65-13.05-7.55-24-7.75-7.5-18.75-9.55-11.15-2.05-20.75 2.4-6.35 2.9-10.8 8.15-2.45 2.85-4.3 6.35m3.65 14.05q-1.15-2 1.45-9.8 2.6-7.85 4.25-8.95 2.05-1.45 5.35-1.1 3.45.3 4.65 2.35 1.05 1.85.9 2.95-.15 1.3-1.9 2.5-.3.25-1.45.45-1.1.15-.95 1.35-.1 7.2-.25 8.1-.5 2.15-1.85 3.05-2.25 1.55-5.55 1.3-3.4-.2-4.65-2.2m25.7-25.55q2.1.25 3.1 2.1.65 1.05.15 2.25-.55 1.1-1.85 2-1.6 1.1-3.05.55-1.5-.55-2.5-2.35-.85-2.55-.25-3.05.65-.55 1.05-.85 1.45-.95 3.35-.65m29.7 44.5l7.7 6.15-7.7-6.15m-80.2-61.25q-1.9-.15-4.15.55-1.4.5-3.85 1.7-3.05 1.5-4.4 2.55-2.2 1.65-2.95 3.7-.5 1.45-.45 3.9.1 3.3.05 4-.3 2.4-2.2 6.2-2.3 4.4-2.8 6.15-1.6 5.25.6 11.05 2 5.45 6.55 9.45 4.8 4.15 9.35 4.15 3.15-.1 6.45-2.35 1.85-1.25 5.55-4.65 3.25-3 5.8-4.35 2-1.05 3.9-1.35.4-6.25 3.7-12.45 1.85-3.5 4.3-6.35-3.55-.95-6.9-3.45-4.15-3.05-7.4-7.95-3.6-5.4-4.7-6.65-3.05-3.45-6.45-3.85m10.7 32.75q3.15.05 5.2.25-2.05-.2-5.2-.25-3.15-.05-4.2 0 1.05-.05 4.2 0z"
       id="path873" />
    <path
       fill="#a9b0d2"
       d="M153.921 115.184q-.95-1.85-4.55-3.45-1.45-.65-2.55-1.2-4.4.15-9.6 4.5-5.95 4.95-7.15 9.9 4.35 3.1 6.8 6.9 2.45 3.8 1.95 10.25-.55 6.4-8.25 14.6-3.45 3.95-6.65 4.35l-.6.1q0 .45.2.95.6 1.6 2.05 2.1 1.95.65 5.75-1 20.8-9.3 28.5-23.65 1.6-2.9 1.75-5.75.15-3.35-2-5-.45-.35-1.75-1.05-1.2-.65-1.75-1.2-1.55-1.5-1.45-5.4.15-4.4-.7-5.95z"
       id="path875" />
    <path
       fill="#fff"
       stroke="none"
       d="M85.771 88.134q-1-1.85-3.1-2.1-1.9-.3-3.35.65-.4.3-1.05.85-.6.5.25 3.05 1 1.8 2.5 2.35 1.45.55 3.05-.55 1.3-.9 1.85-2 .5-1.2-.15-2.25m-27.35 13.65q-2.6 7.8-1.45 9.8 1.25 2 4.65 2.2 3.3.25 5.55-1.3 1.35-.9 1.85-3.05.15-.9.25-8.1-.15-1.2.95-1.35 1.15-.2 1.45-.45 1.75-1.2 1.9-2.5.15-1.1-.9-2.95-1.2-2.05-4.65-2.35-3.3-.35-5.35 1.1-1.65 1.1-4.25 8.95z"
       id="path877" />
  </g>
  <g
     aria-label="PHPWrapper"
     id="text899"
     style="font-style:normal;font-variant:normal;font-weight:800;font-stretch:normal;font-size:95px;line-height:1.25;font-family:'Nunito Sans';-inkscape-font-specification:'Nunito Sans Ultra-Bold';fill:#ffffff;fill-opacity:1;stroke:#1a2549;stroke-width:6.6;stroke-linecap:round;stroke-linejoin:round;stroke-miterlimit:4;stroke-dasharray:none;stroke-opacity:1;paint-order:stroke fill markers">
    <path
       d="m 133.26005,50.858366 h 30.78 q 10.925,0 17.005,5.51 6.08,5.51 6.08,15.39 0,9.88 -6.08,15.39 -6.08,5.51 -17.005,5.51 h -15.96 v 25.175004 h -14.82 z m 28.88,30.59 q 11.115,0 11.115,-9.595 0,-4.94 -2.755,-7.315 -2.755,-2.375 -8.36,-2.375 h -14.06 v 19.285 z"
       id="path901" />
    <path
       d="m 242.12998,50.858366 h 14.535 v 66.975004 h -14.535 V 89.713366 h -30.875 v 28.120004 h -14.535 V 50.858366 h 14.535 v 27.075 h 30.875 z"
       id="path903" />
    <path
       d="m 269.96497,50.858366 h 30.78 q 10.925,0 17.005,5.51 6.08,5.51 6.08,15.39 0,9.88 -6.08,15.39 -6.08,5.51 -17.005,5.51 h -15.96 v 25.175004 h -14.82 z m 28.88,30.59 q 11.115,0 11.115,-9.595 0,-4.94 -2.755,-7.315 -2.755,-2.375 -8.36,-2.375 h -14.06 v 19.285 z"
       id="path905" />
    <path
       d="m 416.9299,50.858366 h 14.06 l -23.845,66.975004 h -11.875 l -15.485,-44.365004 -15.675,44.365004 h -11.875 l -23.75,-66.975004 h 15.01 l 15.295,46.265 16.245,-46.265 h 10.355 l 15.675,46.74 z"
       id="path907" />
    <path
       d="m 465.85476,81.828366 -8.075,0.855 q -5.985,0.57 -8.455,3.42 -2.47,2.755 -2.47,7.41 v 24.320004 h -14.345 V 71.188366 h 13.775 v 7.885 q 3.515,-8.075 14.535,-8.835 l 4.18,-0.285 z"
       id="path909" />
    <path
       d="m 491.31467,70.048366 q 10.45,0 15.39,4.94 5.035,4.94 5.035,15.295 v 27.550004 h -13.585 v -6.935 q -1.425,3.61 -4.75,5.7 -3.325,1.995 -7.79,1.995 -4.75,0 -8.645,-1.9 -3.8,-1.9 -6.08,-5.32 -2.185,-3.42 -2.185,-7.6 0,-5.130004 2.565,-8.075004 2.66,-2.945 8.455,-4.275 5.795,-1.33 15.865,-1.33 h 2.47 v -1.71 q 0,-4.18 -1.805,-5.89 -1.805,-1.71 -6.27,-1.71 -3.42,0 -7.6,1.235 -4.18,1.235 -7.98,3.42 l -3.8,-9.595 q 3.99,-2.47 9.785,-4.085 5.89,-1.71 10.925,-1.71 z m -2.565,38.665004 q 4.18,0 6.745,-2.755 2.565,-2.85 2.565,-7.315004 v -1.615 h -1.615 q -7.695,0 -10.83,1.235 -3.04,1.235 -3.04,4.465004 0,2.565 1.71,4.275 1.805,1.71 4.465,1.71 z"
       id="path911" />
    <path
       d="m 551.3546,70.048366 q 5.985,0 10.64,3.135 4.75,3.04 7.315,8.645 2.66,5.51 2.66,12.73 0,7.220004 -2.66,12.730004 -2.565,5.415 -7.22,8.36 -4.655,2.945 -10.735,2.945 -4.75,0 -8.645,-1.9 -3.8,-1.995 -5.89,-5.51 v 23.75 h -14.345 V 71.188366 h 14.155 v 6.555 q 2.09,-3.61 5.985,-5.605 3.895,-2.09 8.74,-2.09 z m -4.18,37.620004 q 5.035,0 7.79,-3.325 2.755,-3.42 2.755,-9.785004 0,-6.46 -2.755,-9.975 -2.755,-3.61 -7.79,-3.61 -5.035,0 -7.79,3.515 -2.755,3.42 -2.755,9.88 0,6.365004 2.755,9.880004 2.755,3.42 7.79,3.42 z"
       id="path913" />
    <path
       d="m 609.58952,70.048366 q 5.985,0 10.64,3.135 4.75,3.04 7.315,8.645 2.66,5.51 2.66,12.73 0,7.220004 -2.66,12.730004 -2.565,5.415 -7.22,8.36 -4.655,2.945 -10.735,2.945 -4.75,0 -8.645,-1.9 -3.8,-1.995 -5.89,-5.51 v 23.75 h -14.345 V 71.188366 h 14.155 v 6.555 q 2.09,-3.61 5.985,-5.605 3.895,-2.09 8.74,-2.09 z m -4.18,37.620004 q 5.035,0 7.79,-3.325 2.755,-3.42 2.755,-9.785004 0,-6.46 -2.755,-9.975 -2.755,-3.61 -7.79,-3.61 -5.035,0 -7.79,3.515 -2.755,3.42 -2.755,9.88 0,6.365004 2.755,9.880004 2.755,3.42 7.79,3.42 z"
       id="path915" />
    <path
       d="m 680.93442,97.218366 h -30.4 q 0.665,5.605004 3.61,8.170004 3.04,2.47 8.55,2.47 3.61,0 7.125,-1.14 3.61,-1.235 6.555,-3.42 l 3.8,9.595 q -3.42,2.66 -8.36,4.18 -4.845,1.52 -9.785,1.52 -11.78,0 -18.62,-6.46 -6.745,-6.555 -6.745,-17.765004 0,-7.125 2.945,-12.635 2.945,-5.51 8.17,-8.55 5.225,-3.135 11.875,-3.135 9.785,0 15.485,6.365 5.795,6.365 5.795,17.29 z m -20.9,-17.29 q -4.085,0 -6.555,2.66 -2.375,2.565 -2.945,7.505 h 18.335 q -0.285,-5.035 -2.565,-7.6 -2.185,-2.565 -6.27,-2.565 z"
       id="path917" />
    <path
       d="m 722.92434,81.828366 -8.075,0.855 q -5.985,0.57 -8.455,3.42 -2.47,2.755 -2.47,7.41 v 24.320004 h -14.345 V 71.188366 h 13.775 v 7.885 q 3.515,-8.075 14.535,-8.835 l 4.18,-0.285 z"
       id="path919" />
  </g>
</svg>
